<?xml version="1.0" encoding="UTF-8"?><svg id="a" xmlns="http://www.w3.org/2000/svg" xmlns:xlink="http://www.w3.org/1999/xlink" viewBox="0 0 51.02 51.02"><defs><clipPath id="b"><rect x="4.01" y=".91" width="42.4" height="49.43" style="fill:none;"/></clipPath></defs><ellipse cx="39.16" cy="27.66" rx=".49" ry=".46" style="fill:#fff;"/><g style="clip-path:url(#b);"><path d="M25.18,3.7c1.1,0,1.98.88,1.98,1.97,0,1.1-.89,1.98-1.98,1.98s-1.97-.88-1.97-1.98c0-1.1.88-1.97,1.97-1.97ZM24.74,1.24c-2.24.24-3.99,2.13-3.99,4.43,0,1.59.83,2.98,2.08,3.77.62.39.95,1.12.88,1.87l-.1,1.02c-.18.49-.66.82-1.18.82h-5.55c-.27,0-.52-.13-.68-.35-.34-.5-.92-.82-1.57-.8-.99.01-1.82.85-1.83,1.84-.01,1.05.83,1.89,1.87,1.89.43,0,.83-.14,1.15-.39.26-.2.6-.26.89-.12l5.59,2.53c.66.29,1.06.96,1.02,1.68-.22,3.74-.89,15.35-1.34,20.65-.07.83-.79,1.45-1.62,1.39-6.17-.49-9.85-3.95-11.56-6.1-.16-.2-.07-.5.17-.58l1.35-.49c.27-.1.34-.45.12-.65l-2.23-1.89-2.23-1.89c-.22-.18-.56-.06-.61.22l-.52,2.88-.53,2.88c-.05.28.22.52.5.43l1.54-.55c.2-.07.4.04.48.22,2.68,6.96,10.35,9.82,13.86,11.31,1.4.6,2.54,1.36,3.43,2.09.19.16.38.31.55.47.33.29.82.29,1.15,0,.17-.16.35-.31.55-.47.89-.73,2.04-1.5,3.43-2.09,3.51-1.49,11.18-4.34,13.86-11.31.07-.2.28-.29.48-.22l1.54.55c.22.09.49-.15.44-.43l-.52-2.88-.53-2.88c-.05-.28-.39-.4-.61-.22l-2.23,1.89-2.23,1.89c-.22.18-.16.55.12.65l1.35.49c.24.09.33.39.17.58-1.72,2.15-5.4,5.6-11.56,6.1-.83.06-1.56-.56-1.62-1.39-.45-5.32-1.13-16.91-1.34-20.65-.04-.72.37-1.39,1.02-1.68l5.61-2.55c.28-.12.59-.07.84.12.4.33.95.49,1.54.37.73-.15,1.32-.73,1.46-1.45.23-1.2-.68-2.24-1.83-2.24-.63,0-1.18.32-1.52.79-.16.23-.42.37-.69.37h-5.55c-.52,0-1-.33-1.18-.82l-.1-1.07c-.07-.72.26-1.43.87-1.81,1.41-.88,2.29-2.53,2.06-4.36-.26-2.01-1.9-3.62-3.91-3.84-.34-.04-.67-.04-.99,0Z"/></g></svg>