<?xml version="1.0" encoding="UTF-8"?><svg id="a" xmlns="http://www.w3.org/2000/svg" viewBox="0 0 51.02 51.02"><ellipse cx="39.33" cy="27.49" rx=".51" ry=".48" style="fill:#fff;"/><path d="M44.01,29.21c-.29-.63-.28-1.36-.2-2.05,0-.08-.07-.12-.15-.08-.12.06,0,1.9.11,2.12l-.06.2.44.82c-.42-.21-.61-.38-.77-.8-.4-1.04-.31-2.2.04-3.24.21-.12.29-.26.25-.39.38-.39.46-.22.25.19-.18.03-.27.35-.12.45-.06.12-.15.8.07.6,0-.22.05-.42.15-.59.26-1.47,1.1-1.89,2.64-2.34l1.35-.4c.88-.37,1.62-.92,2.28-1.58.28-.27.32-.82-.04-1.05-1.32-.86-2.63-.68-4.05-.68h-2.93s-1.18-.1-1.18-.1l-4.85-.56-1.18-.1-2.03-.12-2.53-.06c-.53-.01-1.03-.06-1.56.01l-1.82.02c-.65-.22-1.12-.65-1.54-1.15l-2.28-2.7c-.46-.54-1.01-.96-1.78-.99s-.33.87-.51,1.48c-.14.48-.15.95.11,1.41.2.36.18.73.14,1.13l-.09.93c-.04.44-.31.79-.6,1.13l-4.47,1.43c-.56.18-1.19-.69-1.72-.44-.16.07-.23.25-.21.46l.05.62-4.7,1.34c-.47.13-.85-.07-1.21-.35l-1.66-1.28-1.75-1.32-2.58-2.05c-.69-.55-2.08-1.29-2.58-.85-.13.11-.23.3-.16.51.14.4.31.81.56,1.16.11.16.41.07.57.1.58.56,1.09,1.2,1.46,1.91.64,1.21,1.33,2.36,2.26,3.41.3.33.37.69.16,1.09-.22.42-.28.89-.36,1.36-.14.87-.43,2.82-.01,2.93.1.03.27.03.35-.05l.57-.53c.62-.88,1.32-1.63,2.05-2.42.43-.46.91-.93,1.63-.93h3.16c.12,0,.28.09.28.18v.69c.01.24.16.4.34.48.44.18,1.45-.83,2.17-.87s1.42.36,2.1.47c-.14.34-.57.57-.35.83.12.14.33.11.55.09-.18.51-.78.91-.5,1.29.09.12.27.23.48.22,1.12-.11,2.3-.75,3.37-1.24,1.92.65,3.9,1,6,1.22-.32.41-.68.71-.84,1.15-.1.3.03.58.34.66.22.06.42.02.67-.04-.14,1.25-1.91,3.93-.47,4.13.33.05.64-.07.93-.24.85-.49,1.57-1.1,2.32-1.72l1.25-1.04.41-.37,1.59-1.52.83-.94c.21-.24.62-.58.99-.5.26.06.49.29.81.22.44.38.97.53,1.57.58.4.42.96.63,1.58.53.81.5,2.2.46,3.24.42.74-.03,1.47-.14,2.11-.53.13-.13.05-.44-.07-.58-.3-.36-.51-.79-.68-1.18Z" style="fill:#383634;"/><path d="M36.67,25.05c0-1.11,1.42-2.43.73-3.31-.07-.09.05-.26.1-.21.42.36.43.94.22,1.41l-.6,1.33c-.48,1.08-.26,3.6.13,4.81.28.88.94,1.94,1.91,1.77-.34-.39-.48-.81-.63-1.26-.68-2.02-.68-4.82.15-6.79.15-.37.19-.76.17-1.14s-.31-.48-.39-.61c-.02-.04-.01-.13.04-.14.2-.05.61.36.61.88s-.15.99-.33,1.47c-.29.75-.38,1.52-.49,2.31-.06.4-.01.78,0,1.18.07,1.22.37,3.54,1.29,4.2.64.47,2.92.39,3.98.26.36-.05.68-.19.98-.36-1.27-.6-2.36-1.54-2.71-2.86-.12-.45.16-.9.48-1.19l1.19-1.1c.72-.67,1.5-1.27,2.49-1.57l1.9-.57c.88-.35,1.68-.93,2.29-1.6.25-.28.07-.67-.24-.8-.51-.21-1.03-.49-1.62-.49h-3.1c-.45,0-.85.04-1.3.01-1.11-.06-2.18-.15-3.29-.29l-.82-.11-1.08-.12-1.02-.11-1.28-.12-1.95-.13-1.67-.04h-3.71s-1.35.07-1.35.07c-1.94.11-3.78.48-5.64,1.01l-4.82,1.55c-2.33.75-4.6,1.49-7,2.05-.37.09-.78-.2-1.03-.39l-1.98-1.5-1.6-1.21-1.99-1.6c-.73-.59-1.76-1.34-2.66-1.33-.21,0-.34.22-.26.4l.52,1.08c.32-.12.54,0,.73.2.74.77,1.27,1.64,1.75,2.58.52,1.03,1.24,1.9,1.96,2.8.21.26.28.63.13.92-.22.42-.31.82-.39,1.28-.16.98-.34,1.94-.19,2.94.47-.26.73-.6.98-.95.45-.63.93-1.2,1.5-1.74l1.01-.94c.27-.25.71-.36,1.1-.36h2.52c2.87.16,5.12.76,7.77,1.75l1.62.51c1.52.48,3.05.82,4.65,1l1.21.14.99.04c.43-.49,1.09-1.3,1.17-.88-1.13.93-1.84,2.15-2.17,3.51l-.67,1.81c-.14.37-.26.84-.11,1.22.11.29.55.21.79.1.93-.44,1.64-1.08,2.42-1.7.84-.66,1.62-1.31,2.38-2.05.54-.52,1.06-1.01,1.51-1.6.32-.42.7-.75,1.28-.93-.74-1.05-1.26-2.41-1.16-3.61.05-.61.29-1.14.43-1.72l.29-1.18c.06-.25-.11-.47-.2-.7-.02-.05.18-.09.22-.05.27.28.22,1,.06,1.51l-.28.93c-.47,1.27-.34,2.59.3,3.78.27.51.46,1.15,1.21,1.29l-.34-.78c-.46-1.05-.74-2.19-.66-3.35.13-1.77,1.4-2.97,1.07-3.6-.04-.07-.19-.3-.03-.29.45.05.4.81.1,1.35-.39.71-.75,1.45-.85,2.26-.16,1.2.11,2.39.58,3.49.32.74.34,1.26,1.57,1.42-.36-.62-.62-1.2-.72-1.88l-.18-1.25v-2.1Z" style="fill:#7f7b77;"/><path d="M43.81,26.44l-.16.05c-.22.44-.3,2.36-.03,2.65.04.04.11.06.16.07.12-.2-.07-.38-.08-.57l-.04-1.46s.04-.03.05-.03l.04,1.44c0,.14.18.26.11.45-.03.09.09.16.15.18-.09-.48-.29-.99-.2-1.51l.22-1.25c-.27.05-.09.34-.2.57-.06-.22-.02-.4-.02-.59Z" style="fill:#595755;"/><path d="M22.45,18.84c.08.65-.09,1.17-.44,1.76,1.91-.55,3.71-.9,5.68-1.03-.53-.3-.89-.62-1.25-1.03l-2.53-2.97c-.48-.57-1.41-.81-1.59-.66-.07.06-.13.2-.11.31.09.55-.03,1.04-.08,1.56-.04.36.24.72.34,1.04.08.33.05.65-.03,1Z" style="fill:#7f7b77;"/><path d="M17.85,29.94c.32.35,2.4-.62,3.24-1.04l-2.34-.82-.95,1.52c-.06.1-.01.28.05.35Z" style="fill:#8e8c88;"/><path d="M43.67,25.8l-.37.33c-.41,1.22-.47,2.64.15,3.77.27.27.68.49,1.04.62-.3-.48-.55-.86-.72-1.31-.28-.73-.26-2.13.03-2.77.07-.14.1-.28.12-.45.12-.18.14-.34.06-.46l-.31.27Z" style="fill:#e3ddd6;"/><path d="M26.94,31.78c.25.09.55,0,.77-.08l.74-1.39-.7-.1c-.51.48-1.27,1.4-.8,1.57Z" style="fill:#8e8d8a;"/><path d="M42.12,27.41c-.26.5.27,1.55.85,2.04-.19-.78-.21-1.51-.14-2.3l.06-.61c-.34.23-.59.53-.77.88Z" style="fill:#dbd6cf;"/><path d="M13.47,26.95c.19.41-.04.86.16,1.01.05.04.17.06.26,0l.63-.36c.26-.15.5-.3.8-.38-.28-.19-.56-.16-.84-.2-.34-.05-.65-.15-1-.08Z" style="fill:#8c8b8a;"/><path d="M15.48,22.71l1.07-.36c-.49-.19-.97-.61-1.07-.41-.12.22-.05.48,0,.78Z" style="fill:#8b8988;"/><path d="M17.66,28.45c.25.08.58.06.71-.13.07-.11.1-.23.07-.3-.04-.09-.26-.18-.33-.09l-.45.53Z" style="fill:#878685;"/><path d="M43.67,25.8c.09-.08.24-.09.3-.23.07.18-.04.29-.05.42.11-.13.18-.31.21-.58-.19.09-.36.21-.46.39Z" style="fill:#595755;"/><path d="M14.38,25.28l1.45-.13,1.08-.07,1.22-.08,1.99-.15,2.91-.12h3.36s2.77.12,2.77.12l2.06.16,1.43.14c0-.18-.2-.23-.36-.24l-1.29-.11-1.67-.14-1.12-.04c-1.23-.05-2.43-.09-3.68-.09-1.15,0-2.27-.02-3.4.09l-1.26.04-1.88.14-1.49.12-1.36.11-1.55.13-1.42.11-1.19.09c-.08,0-.14.04-.17.07-.03.05,0,.16.07.15l.75-.08,1.22-.09,1.52-.12Z" style="fill:#565350;"/><path d="M30.3,29.4c.93-.17,3.03.04,4.04.28.05.01.1-.09.07-.12-.24-.28-3.22-.5-4.24-.35-.05,0,.02.21.13.19Z" style="fill:#534f4c;"/><path d="M45.84,22.24c-.32-.11-.54.1-.63.28-.12.22.03.41.3.5.25.07.49-.05.63-.22s.02-.45-.3-.56Z" style="fill:#bcbcbc; stroke:#474747; stroke-miterlimit:10; stroke-width:.25px;"/></svg>