<?xml version="1.0" encoding="UTF-8"?><svg id="a" xmlns="http://www.w3.org/2000/svg" xmlns:xlink="http://www.w3.org/1999/xlink" viewBox="0 0 51.02 51.02"><defs><clipPath id="b"><rect x=".08" y="15.84" width="50.33" height="18.4" style="fill:none;"/></clipPath></defs><ellipse cx="39.16" cy="27.66" rx=".49" ry=".46" style="fill:#fff;"/><g style="clip-path:url(#b);"><path d="M7.45,16.12c-2.32.03-5.26.38-7.05,1.4-.09.05-.05.18.04.19,4.85.49,6.97,4.47,7.28,5.1.03.05.08.09.13.11,4.82,1.08,6.44,4.58,6.73,5.33.03.08.12.13.2.12,2.8-.29,6.2,1.96,7.16,2.96.46.4.3.54.24.77-.18.68.34.78.59.76.27-.02.03-.23.09-.37.08-.17.18-.19.31-.07.33.3,1.29,1.23,2.05,1.56.77-.34,1.73-1.26,2.06-1.56.13-.12.23-.1.31.07.06.14-.17.35.1.37.25.02.77-.08.59-.76-.06-.24-.22-.37.24-.77.96-1,4.37-3.25,7.16-2.96.09,0,.17-.04.2-.12.29-.74,1.91-4.24,6.73-5.33.06-.01.11-.05.13-.11.31-.63,2.43-4.6,7.28-5.1.1,0,.12-.14.04-.19-1.79-1.02-4.72-1.38-7.05-1.4-4.71-.05-6.26,1.26-11.03,2.48-.14.03-1.26.3-1.24.55,0,.04.04.09.05.09.28-.09.83-.14.72.42-.73,3.63-3.1,4.22-3.7,4.25-.13,0-.26-.05-.35-.15,0,0,0-.01-.01-.02-.16-.36.3-.92.07-1.74-.11-.38-1.19.36-1.51,1-.2-.05-.52-.08-.79-.08-.27,0-.59.03-.79.08-.32-.64-1.41-1.38-1.51-1-.23.82.23,1.38.07,1.74,0,0-.01.01-.02.02-.09.1-.21.16-.34.15-.6-.03-2.98-.62-3.7-4.25-.11-.56.44-.51.72-.42,0,0,.04-.04.05-.09.02-.25-1.11-.52-1.24-.55-4.78-1.22-6.32-2.54-11.03-2.48Z"/></g></svg>