<?xml version="1.0" encoding="UTF-8"?><svg id="a" xmlns="http://www.w3.org/2000/svg" xmlns:xlink="http://www.w3.org/1999/xlink" viewBox="0 0 51.02 51.02"><defs><clipPath id="b"><rect x="12.58" y="8.47" width="24.67" height="35.35" style="fill:none;"/></clipPath></defs><ellipse cx="39.16" cy="27.66" rx=".49" ry=".46" style="fill:#fff;"/><g style="clip-path:url(#b);"><path d="M23.15,40.68h3.52v.61h-3.52v-.61ZM24.74,39.01h1.94v.61h-1.94v-.61ZM24.74,37.33h1.94v.61h-1.94v-.61ZM24.74,35.65h1.94v.61h-1.94v-.61ZM23.16,33.98h3.52v.61h-3.52v-.61ZM24.74,32.3h1.94v.61h-1.94v-.61ZM24.74,30.62h1.94v.61h-1.94v-.61ZM24.74,28.95h1.94v.61h-1.94v-.61ZM23.16,27.27h3.52v.61h-3.52v-.61ZM24.75,25.6h1.94v.61h-1.94v-.61ZM24.75,23.92h1.94v.61h-1.94v-.61ZM24.75,22.24h1.94v.61h-1.94v-.61ZM23.17,20.56h3.52v.61h-3.52v-.61ZM21.46,8.68c-.49,0-.89.4-.89.89s.4.89.89.89h.42v7.25l-9.03,24.59c-.24.64.24,1.32.92,1.32h22.3c.68,0,1.16-.68.92-1.32l-9.03-24.59v-7.25h.42c.49,0,.89-.4.89-.89s-.4-.89-.89-.89h-6.93Z" style="fill:#3492c6;"/></g></svg>