<?xml version="1.0" encoding="UTF-8"?><svg id="a" xmlns="http://www.w3.org/2000/svg" xmlns:xlink="http://www.w3.org/1999/xlink" viewBox="0 0 51.02 51.02"><defs><clipPath id="b"><rect x=".16" y="9.34" width="50.89" height="28.21" style="fill:none;"/></clipPath></defs><ellipse cx="39.16" cy="27.66" rx=".49" ry=".46" style="fill:#fff;"/><g style="clip-path:url(#b);"><path d="M1.37,33.58c.73,1.85,2.04,3.59,4.36,3.59,2.5,0,28.58,0,28.58,0l10.83-.03,1.65-3.56H1.37ZM37.07,25.02s-.11,3.96-3.01,3.96H.44s.06,1.94.71,3.95h45.96l3.67-7.91h-13.7ZM33.97,24.98v3.36h.09c1,.02,1.73-.52,2.16-1.6.34-.86.38-1.73.38-1.73v-.02h-2.62ZM27.81,24.98v3.44h5.57v-3.44h-5.57ZM21.67,24.98v3.44h5.57v-3.44h-5.57ZM15.59,24.98v3.44h5.58v-3.44h-5.58ZM40.11,20.87v3.43h5.57v-3.43h-5.57ZM33.97,20.87v3.43h5.57v-3.43h-5.57ZM27.81,20.87v3.43h5.57v-3.43h-5.57ZM21.67,20.87v3.43h5.57v-3.43h-5.57ZM15.59,20.87v3.43h5.58v-3.43h-5.58ZM11.7,17.76h1c.14,0,.25.15.25.34v1.33c0,.19-.11.34-.25.34h-1c-.14,0-.25-.15-.25-.34v-1.33c0-.19.11-.34.25-.34ZM9.53,17.76h1c.14,0,.25.15.25.34v1.33c0,.19-.11.34-.25.34h-1c-.14,0-.25-.15-.25-.34v-1.33c0-.19.11-.34.25-.34ZM7.35,17.76h1c.14,0,.25.15.25.34v1.33c0,.19-.11.34-.25.34h-1c-.14,0-.25-.15-.25-.34v-1.33c0-.19.11-.34.25-.34ZM5.17,17.76h1c.14,0,.25.15.25.34v1.33c0,.19-.11.34-.25.34h-1c-.14,0-.25-.15-.25-.34v-1.33c0-.19.11-.34.25-.34ZM40.11,16.76v3.44h5.57v-3.44h-5.57ZM33.97,16.76v3.44h5.57v-3.44h-5.57ZM27.81,16.76v3.44h5.57v-3.44h-5.57ZM21.67,16.76v3.44h5.57v-3.44h-5.57ZM15.59,16.76v3.44h5.58v-3.44h-5.58ZM11.7,12.63h1c.14,0,.25.15.25.34v1.33c0,.19-.11.34-.25.34h-1c-.14,0-.25-.15-.25-.34v-1.33c0-.19.11-.34.25-.34ZM9.53,12.63h1c.14,0,.25.15.25.34v1.33c0,.19-.11.34-.25.34h-1c-.14,0-.25-.15-.25-.34v-1.33c0-.19.11-.34.25-.34ZM11.9,9.71v.91h.57v.98h-4.18v4.95h-4.2v7.69h-1.67v4.36h11.31V11.6h-.58v-.98h.57v-.91h-1.83Z"/></g></svg>