<?xml version="1.0" encoding="UTF-8"?><svg id="a" xmlns="http://www.w3.org/2000/svg" xmlns:xlink="http://www.w3.org/1999/xlink" viewBox="0 0 51.02 51.02"><defs><clipPath id="b"><rect x="0" y="15.99" width="50.69" height="21.26" style="fill:none;"/></clipPath></defs><ellipse cx="39.16" cy="27.66" rx=".49" ry=".46" style="fill:#fff;"/><g style="clip-path:url(#b);"><path d="M39.82,29.15h2.27l.54,1.7h-2.81v-1.7ZM35.99,29.15h2.27v1.7h-2.27v-1.7ZM32.16,29.15h2.28v1.7h-2.28v-1.7ZM28.32,29.15h2.27v1.7h-2.27v-1.7ZM24.49,29.15h2.27v1.7h-2.27v-1.7ZM20.65,29.15h2.28v1.7h-2.28v-1.7ZM16.83,29.15h2.27v1.7h-2.27v-1.7ZM12.99,29.15h2.27v1.7h-2.27v-1.7ZM9.15,29.15h2.28v1.7h-2.28v-1.7ZM5.36,29.15h2.28v1.7h-3.25l.97-1.7ZM2.45,27.06l-2.16,3.22,2.21,6.58h42.03l5.89-9.8H2.45ZM3.92,24.87l-1.01,1.5h42.47l-1.09-1.5H3.92ZM28.91,16.39l-1.26,1.81h-2.71l-5.55,3.95h-1.54l-1.14-4.76h-1.96l1.14,4.76h-2.06l-1.14-4.76h-1.96l1.14,4.76h-2.06l-1.15-4.76h-1.96l1.15,4.76H3.18l.78,2.01h39.82l-1.09-1.5h-10.81v-.69h10.3l-1.09-1.5h-9.21v-.71h8.71l-1.14-1.57h-2.05l-1.19-1.81h-7.33Z"/></g></svg>