<?xml version="1.0" encoding="UTF-8"?><svg id="a" xmlns="http://www.w3.org/2000/svg" xmlns:xlink="http://www.w3.org/1999/xlink" viewBox="0 0 51.02 51.02"><defs><clipPath id="b"><rect x="16.95" y=".86" width="18.46" height="49.66" style="fill:none;"/></clipPath></defs><ellipse cx="39.16" cy="27.66" rx=".49" ry=".46" style="fill:#fff;"/><g style="clip-path:url(#b);"><path d="M26.18,43.37c2.38.71,4.27,1.99,5.38,3.57h-10.77c1.11-1.59,3-2.86,5.38-3.57ZM20.7,36.99h10.96c-1.09,1.66-3.03,3.02-5.48,3.75-2.45-.73-4.39-2.09-5.48-3.75ZM20.01,32.08h12.33c.2.57.31,1.17.31,1.78,0,.57-.09,1.12-.27,1.66h-12.41c-.18-.54-.27-1.1-.27-1.66,0-.61.11-1.2.31-1.78ZM26.18,26.97c2.4.72,4.3,2.03,5.41,3.64h-10.81c1.11-1.6,3.01-2.92,5.4-3.64ZM20.72,20.66h10.91c-1.1,1.64-3.02,2.98-5.46,3.71-2.43-.73-4.35-2.07-5.45-3.71ZM20,15.75h12.36c.19.56.3,1.14.3,1.73s-.1,1.15-.28,1.7h-12.38c-.19-.55-.29-1.12-.29-1.7,0-.59.1-1.17.3-1.73ZM26.18,10.6c2.42.72,4.33,2.05,5.43,3.68h-10.87c1.1-1.62,3.02-2.95,5.43-3.68ZM20.75,4.33h10.86c-1.1,1.62-3.01,2.97-5.43,3.69h0s0,0,0,0c-2.41-.72-4.32-2.07-5.42-3.69ZM17.22,1.14c0,3.29,2.15,6.33,5.59,8.17-3.44,1.83-5.59,4.87-5.59,8.18s2.16,6.36,5.6,8.19c-3.44,1.83-5.6,4.87-5.6,8.19s2.17,6.37,5.62,8.19c-3.45,1.84-5.62,4.91-5.62,8.2h2.48c0-.64.11-1.25.32-1.84h12.3c.21.59.32,1.21.32,1.84h2.49c0-3.3-2.17-6.37-5.62-8.2,3.45-1.83,5.62-4.87,5.62-8.2s-2.16-6.36-5.6-8.19c3.44-1.83,5.6-4.87,5.6-8.19s-2.15-6.35-5.59-8.18c3.44-1.83,5.59-4.88,5.59-8.17h-2.49c0,.58-.1,1.16-.3,1.72h-12.36c-.19-.56-.3-1.14-.3-1.72h-2.48Z"/></g></svg>