<?xml version="1.0" encoding="UTF-8"?><svg id="a" xmlns="http://www.w3.org/2000/svg" viewBox="0 0 51.02 51.02"><path d="M3.67,37.25c-.52-.77,2.12-2.76,2.21-2.97s.04-.33,0-.72-.29-1.92,1.51-5.16c1.81-3.24,4.96-5.49,7.61-6.93s5.32-2.62,6.63-3.06,2.32-1.31,2.58-1.64,2.49-3.65,3-4.03.52-.63,1.16-.9,1.38-.07,1.11.26c-.5.59-.81,2.41-.66,3.3-.09,1.93,2.32,2.76,3.17,3.04,1.93.63,4.31,2.28,5.82,3.46s2.56,4.03,2.56,4.03c0,0,.57,1.99.61,2.23s0,1.12.2,1.22c.31.29,2.67.7,4.77,2.47,2.1,1.77,2.54,3.43,2.21,3.96s-1.25-.57-1.88-.9-2.45-1.33-2.8-1.34-1.03-.04-1.38-.11-.48-.46-.63-.5-.29.41-.39.39-.72-.31-1.99-.29-2.39.41-2.67.7-.64.44-.81.33-.46-.33-.42-1.11.87-1.99,1.73-2.39,1.99-.7,1.99-.7c0,0-.98-1.42-2.63-1.49s-4.68.53-7.15.98-4.94,1.53-4.94,1.53c0,0,.07.17.74.28s2.82-.15,2.91.07-.63,1.03-2.65,1.53-4.53.17-4.81.11-1.73-.28-2.08-.11-1.92.5-2.67.81-4.03,1.77-4.92,2.03-3.5.76-3.79.94-1.44.88-1.6.96-1.14.52-1.66-.26c0,0,.02,0,.02,0Z" style="fill:#003454;"/><ellipse cx="11.76" cy="31.89" rx=".62" ry=".58" style="fill:#fff;"/></svg>