<?xml version="1.0" encoding="UTF-8"?><svg id="a" xmlns="http://www.w3.org/2000/svg" xmlns:xlink="http://www.w3.org/1999/xlink" viewBox="0 0 51.02 51.02"><defs><clipPath id="b"><rect x="2.38" y="2.73" width="46.56" height="46.54" style="fill:none;"/></clipPath></defs><ellipse cx="39.16" cy="27.66" rx=".49" ry=".46" style="fill:#fff;"/><g style="clip-path:url(#b);"><path d="M9.82,3.04s-.04.03-.04.06c-.03.42.12,1.98,3.02,5.31.02.03-.01.08-.05.06-2.14-1.52-6.2-4.63-6.91-5.17-.05-.03-.11,0-.11.06.01.52.42,2.49,5.48,6.04.03.02,0,.08-.03.06-2.47-1.19-6.93-3.09-7.92-3.51-.07-.02-.13.04-.09.1.39.6,1.98,2.53,7.1,4.73.03.01.02.08-.03.07-4.28-.78-6.72-1.31-7.37-1.45-.07-.01-.11.06-.07.11.37.44,1.81,1.7,6.87,2.88.05.01.04.08-.01.07-3.8-.29-5.95-.42-6.67-.47-.08,0-.1.09-.05.14.62.38,2.41,1.36,4.91,1.86.06.01.06.09,0,.1-1.96.53-2.4,1.31-2.48,1.51-.01.02,0,.06.03.08.17.13.96.63,2.07.78.07.01.1.09.06.15-.7.85-.2,2.31,1.06,2.64.07.01.09.09.05.15-.78.96-.15,2.56,1.54,2.55.05,0,.08.03.09.07.65,2.54,4.88,5.06,5.19,8.73,0,.06-.04.11-.09.14-6.37,1.75-13.84-.15-12.38,2.96,0,0,.17.4.62.78.07.06.06.16-.02.21-.62.29-.87,1.56-.24,2.09.07.06.06.15-.03.2-.62.39-.8,1.21-.32,2.19.6,1.22,1.94,1.07,2.43.97.1-.02.2.02.25.11.14.24.51.7,1.54.89,1.14.22,1.71-.15,1.93-.34.06-.05.14-.03.17.04.15.26.59.8,1.85.83,1.46.02,5.33-1.58,8.7-5.84.05-.07.14-.09.22-.07,3.71,1.21,4.04,4.25,9.91,4.7.06,0,.09.05.1.1.22,1.42,1.94,2.66,3.69,2.32.08-.01.16.07.13.15-.4,1.24.08,2.32.22,2.58.02.03.06.06.1.05.31-.08,1.57-.5,2.59-1.75.02-.03.07-.01.07.04-.53,3.14.55,4.24.9,4.51.05.03.11.01.14-.05.15-.46.77-2.25,1.42-3.96.01-.05.08-.02.07.01-.25,3.24.73,4.14,1.06,4.34.05.03.11.01.14-.06l1.13-4.08s.07-.03.07,0c.38,1.54,1.38,2.73,1.7,3.1.05.05.13.03.15-.04.15-.46.58-2,.38-3.64,0-.03.05-.06.07-.03.87,1.1,2.07,1.74,2.43,1.92.06.02.13-.01.13-.07.03-.45.1-2-.57-3.19-.02-.03.01-.07.05-.06,1.29.49,2.12.54,2.44.53.07,0,.11-.08.07-.14-.54-.71-3.2-4.26-5.11-6.8-.39-.52-.92-.91-1.52-1.15-1.64-.64-4.75-2.67-6.85-4.11-.07-.05-.07-.14,0-.19,2.53-1.98,4.23-2.3,4.66-2.37.07-.01.14.02.18.07l.31.42s.08.02.09-.01c.98-2.43-1.53-2.17-1.96-2.1-.02,0-.05-.02-.05-.05.07-.23.07-1.02-3.37-.47-.93.15-1.76.17-2.51.13-.05,0-.07-.03-.08-.08-.06-.42-.31-.97-1.08-1.42-1.46-.86-5.49-1.5-7.87-9.27-.17-.57-.49-1.09-.93-1.5C16.82,8.9,10.72,3.74,9.89,3.05c-.02-.02-.05-.02-.08-.01Z"/></g></svg>