<?xml version="1.0" encoding="UTF-8"?><svg id="a" xmlns="http://www.w3.org/2000/svg" xmlns:xlink="http://www.w3.org/1999/xlink" viewBox="0 0 51.02 51.02"><defs><clipPath id="b"><rect x="2.57" y="10.61" width="42.39" height="29.8" style="fill:none;"/></clipPath></defs><g style="clip-path:url(#b);"><path d="M26.65,10.86c-.61-.06-1.18.39-1.24,1.03-.2,2.13,1.12,4.73-1.3,6.03-2.57,1.38-3.21,3.68-1.9,5.5.06.08.02.21-.08.24-4.35,1.66-11.24-9.18-18.56-7.77-.28.05-.46.36-.34.63.58,1.41,2.58,2.5,3.41,2.9.13.06.11.24-.02.28-.88.29-3.02,1.08-3.52,2.09-2.14,4.28,8.51,2.92,11.31,5.85.08.09.1.23.03.35-1.37,2.14-2.94,6.87-1.09,9.85,2.17,3.49,1.33-4.69,6.59-6.61,1.66-.6,2.51-1.71,2.93-2.76.06-.14.25-.12.3.02.22.69.62,1.56,1.34,2.38.07.08.04.22-.06.25-1.22.41-2.68,1.14-3.65,2.48-1.08,1.49-1.04,3.07.65,2.61.14-.04.24.1.18.23-1.06,1.97.29,5.28,1.59,2.91,1.79-3.26,4.09-4.98,5.9-5.88.18-.09.38-.13.58-.09.43.06.9.1,1.38.11.17.01.26.2.16.33-.99,1.29-1.73,2.9.29,2.21,1.6-.55,2.45-1.57,2.85-2.46.07-.16.22-.27.4-.29,6.61-1,10.04-5.12,9.92-6.37-.12-1.23-4.05-7.47-10.74-8.57-.15-.02-.26-.13-.3-.27-.65-2.41-2.34-5.63-6.76-7.14-.09-.03-.17-.05-.26-.06Z" style="fill:#fc7200;"/></g><ellipse cx="38.48" cy="25.01" rx=".84" ry=".79" style="fill:#fff;"/></svg>