<?xml version="1.0" encoding="UTF-8"?><svg id="a" xmlns="http://www.w3.org/2000/svg" xmlns:xlink="http://www.w3.org/1999/xlink" viewBox="0 0 51.02 51.02"><defs><clipPath id="b"><rect x=".71" y="6.01" width="50.38" height="43.83" style="fill:none;"/></clipPath></defs><ellipse cx="39.16" cy="27.66" rx=".49" ry=".46" style="fill:#fff;"/><g style="clip-path:url(#b);"><path d="M29,30.21c1.1,0,2,.9,2,2s-.9,1.99-2,1.99-1.99-.89-1.99-1.99.89-2,1.99-2ZM47.25,22.32c-6.63.02-21.31,1.13-32.72,9.74-.09.06-.11.2-.03.29l10.15,4.56s1.25,1.11-.26,1.54h-10.96s8.91,11.08,37.34,11.08v-27.1s-1.31-.11-3.52-.11ZM41.99,6.33c-4.8.09-11.42,1.48-18.92,6.56-.34-.27-.76-.46-1.22-.52-1.35-.17-2.59.78-2.76,2.13-.05.39,0,.76.11,1.11l-12.43,8.71c-.36.2-2.4,1.19-3.63-.8-.06-.12-.44-.97-.14-1.84.23-.66.81-1.22,1.73-1.67l-.1,2,5.68-5.54-6.24,1.27.27.44c-.08.01-.16.03-.24.07-1.5.69-2.47,1.65-2.88,2.87-.57,1.71.25,3.25.31,3.35.99,1.62,2.36,2.13,3.62,2.13,1.02,0,1.96-.33,2.57-.68l12.7-8.9c.24.12.51.2.79.24,1.35.17,2.59-.78,2.76-2.13.03-.21.02-.41,0-.61,14.2-9.66,25.19-5.32,25.34-5.26.47.2,1.02-.02,1.22-.5.2-.47-.02-1.02-.5-1.22-.25-.1-3.24-1.31-8.04-1.22Z"/></g></svg>