<?xml version="1.0" encoding="UTF-8"?><svg id="a" xmlns="http://www.w3.org/2000/svg" viewBox="0 0 51.02 51.02"><ellipse cx="39.16" cy="27.66" rx=".49" ry=".46" style="fill:#fff;"/><path d="M1.54,15.33c.33-.8.99-1.12,1.7-1.2,1.34-.16,2.62-.04,3.94.21,1.06.2,2.05.37,3.1.64,2.67.69,5.22,1.56,7.77,2.6l4.49,1.82c1.95.79,3.9,1.46,5.94,1.9s2.22-.92,4.13-1.31c.13-.03.41.11.49.2.1.1.13.43.09.57l-.29.88c.23.04.52.08.71.03,1.71-.45,4.46-1.83,4.78-3.84-.55-.31-1.03-.54-1.58-.71-1.28-.41-2.38-1.03-3.44-1.87,0,0-.85-1.04-1.49-1.93s-.77-2.21-.77-2.21v-.86c0-.22.29-.59.48-.67.88-.36,1.5,1.7,3.89,1.2,2.38-.11,3.85.54,5.28,2.61.89-1.57,2.42-2.63,4.17-2.64.69,0,1.37.15,2.03.03,1.47-.26,2.26-1.55,2.89-1.25,1.08.51.08,2.73-.37,3.57-.88,1.64-2.2,2.91-3.94,3.54l-2.42.88c-.47.17-.72.55-.89,1.06-.68,2.03-1.41,4-2.45,5.86-.75,1.35-1.66,2.47-2.7,3.55-.55.57-1,1.22-1.61,1.71-2.37,1.92-5.33,2.58-8.31,2.43l-.89-1.42c-.2-.32-.33-.6-.42-1.01.66,0,1.19.08,1.76.28,1.45.51,2.92.42,4.39.05s2.84-.8,4.12-1.65c.22-.14.42-.42.44-.61.03-.29-.07-.73-.33-.87-1.05.46-2.01,1.01-3.07,1.39-1.76.63-3.65.72-5.47.29l-2.83-.66c-.66-1.57-1.66-2.72-2.93-3.76s-3.05-.94-4.19.37c-1.56-.35-3.07-1.04-4.24-2.2-.96-.94-1.53-2.1-2.32-3.19-1.34-1.86-3.39-3.01-5.6-3.36-1.26-.2-2.53-.2-3.77-.16-.08,0-.3-.24-.26-.32ZM15.71,21.43c.47-.06.78-.47.78-.86,0-.47-.35-.78-.83-.82-.54-.05-.97.37-.94.92.03.45.45.83.98.77Z"/><path d="M31.14,45.65c.23.26.41.65.33.93-.31,1.1-2,.6-2.74.24-1.1-.53-2.06-1.16-3.02-1.94-3.13-2.56-5.46-5.89-6.77-9.81-.9-2.69-1.19-5.46-.57-8.25.13-.56.35-1.11.75-1.53.82-.88,2.9.44,3.64,1.55,1.45,2.19,2.57,4.57,3.18,7.17.28,1.18.38,2.32.55,3.51.32,2.35,1.34,4.46,2.9,6.18l1.76,1.95Z"/><path d="M17.18,35.8c-.92,8.46,4.21,9.85,3.22,11.49s-4.13-1.72-4.91-2.6c-2.43-2.74-4.07-6.1-4.55-9.83-.22-1.7-.22-3.34-.16-5.06.96.57,1.75,1.02,2.64,1.47s1.75.98,2.68,1.35l.94.37c.07.96.23,1.87.13,2.79Z"/><path d="M16.59,28.35c.04.37.03.77-.01,1.24-3.45-1.06-6.9-3.8-9.2-6.46-1.29-1.49-3.41-3.92-3.44-6.01.45-.01.93.03,1.39.12.44,1.92,1.63,3.54,2.84,4.97,2.6,3.08,4.58,4.59,8.43,6.14Z"/><path d="M17.2,25.74l-.41,1.42c-4.58-1.99-7.91-4.83-10.13-9.59,1.11.09,2.01.73,2.59,1.61s1.23,1.75,1.97,2.56c2.08,2.28,2.88,2.83,5.97,4Z"/><path d="M16.58,30.74c.16.05.17.55.09.73-1.17.06-3.48-1.28-4.65-1.9-1.24-.65-2.29-1.38-3.4-2.25-3.08-2.39-5.44-5.54-6.9-9.26-.06-.15-.09-.58.03-.67.2-.15.7-.17.9-.09.05.76.11,1.42.46,2.06.65,1.19,1.33,2.32,2.2,3.38,1.81,2.2,3.92,3.96,6.19,5.61,1.01.73,2.04,1.4,3.22,1.78l1.86.6Z"/><path d="M15.71,21.43c-.54.07-.95-.32-.98-.77-.04-.54.4-.97.94-.92.47.04.83.35.83.82,0,.4-.31.81-.78.86Z" style="fill:#fff;"/></svg>