<?xml version="1.0" encoding="UTF-8"?><svg id="a" xmlns="http://www.w3.org/2000/svg" xmlns:xlink="http://www.w3.org/1999/xlink" viewBox="0 0 51.02 51.02"><defs><clipPath id="b"><rect x="13.84" y=".95" width="22.98" height="49.43" style="fill:none;"/></clipPath></defs><ellipse cx="39.16" cy="27.66" rx=".49" ry=".46" style="fill:#fff;"/><g style="clip-path:url(#b);"><path d="M30.94,17.21h1.2c.07,0,.12.05.12.12v2.19c0,.07-.05.12-.12.12h-1.2c-.06,0-.12-.06-.12-.12v-2.19c0-.07.05-.12.12-.12ZM28.94,17.21h1.25c.07,0,.12.06.12.12v2.19c0,.07-.05.12-.12.12h-1.25c-.07,0-.12-.05-.12-.12v-2.19c0-.07.05-.12.12-.12ZM20.45,17.21h1.25c.07,0,.12.05.12.12v2.19c0,.07-.05.12-.12.12h-1.25c-.07,0-.12-.05-.12-.12v-2.19c0-.06.05-.12.12-.12ZM18.5,17.21h1.2c.07,0,.12.06.12.12v2.19c0,.07-.05.12-.12.12h-1.2c-.07,0-.12-.05-.12-.12v-2.19c0-.07.05-.12.12-.12ZM28.81,9.92h1.34c.07,0,.12.05.12.12v2.32c0,.06-.06.12-.12.12h-1.34c-.07,0-.12-.05-.12-.12v-2.32c0-.07.05-.12.12-.12ZM26.73,9.92h1.34c.06,0,.12.06.12.12v2.32c0,.07-.05.12-.12.12h-1.34c-.07,0-.12-.05-.12-.12v-2.32c0-.07.05-.12.12-.12ZM24.65,9.92h1.34c.07,0,.12.06.12.12v2.32c0,.07-.05.12-.12.12h-1.34c-.07,0-.12-.05-.12-.12v-2.32c0-.07.05-.12.12-.12ZM22.56,9.92h1.34c.07,0,.12.06.12.12v2.32c0,.07-.05.12-.12.12h-1.34c-.07,0-.12-.05-.12-.12v-2.32c0-.07.05-.12.12-.12ZM20.48,9.92h1.34c.07,0,.12.06.12.12v2.32c0,.07-.05.12-.12.12h-1.34c-.07,0-.12-.05-.12-.12v-2.32c0-.07.05-.12.12-.12ZM26.73,7.01h1.34c.06,0,.12.06.12.12v2.17c0,.07-.05.12-.12.12h-1.34c-.07,0-.12-.05-.12-.12v-2.17c0-.07.05-.12.12-.12ZM24.65,7.01h1.34c.07,0,.12.06.12.12v2.17c0,.07-.05.12-.12.12h-1.34c-.07,0-.12-.05-.12-.12v-2.17c0-.07.05-.12.12-.12ZM22.56,7.01h1.34c.07,0,.12.06.12.12v2.17c0,.07-.05.12-.12.12h-1.34c-.07,0-.12-.05-.12-.12v-2.17c0-.07.05-.12.12-.12ZM25.23,1.23c-.44.05-.82.41-.88.85-.06.39.11.76.39.98.06.05.1.12.1.2v.18c0,.07-.03.16-.1.2l-2.68,1.86c-.06.05-.1.12-.1.2v3.48c0,.13-.11.25-.25.25h-1.59c-.13,0-.25.11-.25.25v4.09c0,.13.11.25.25.25h1.47c.13,0,.25.11.25.25v2.22c0,.13-.11.24-.25.24h-3.45c-.13,0-.25.11-.25.25v3.97c0,.13.11.25.25.25h1.69c.15,0,.26.12.25.27l-2.11,22.26c-.02.23-.22.42-.45.42h-3.15c-.13,0-.25.11-.25.25v5.5c0,.13.11.25.25.25h21.95c.13,0,.25-.11.25-.25v-5.5c0-.13-.11-.25-.25-.25h-3.15c-.23,0-.43-.18-.45-.42l-2.11-22.26c-.01-.15.1-.27.25-.27h1.69c.13,0,.25-.11.25-.25v-3.96c0-.13-.11-.25-.25-.25h-3.45c-.13,0-.25-.11-.25-.25v-2.22c0-.13.11-.25.25-.25h1.47c.13,0,.25-.11.25-.25v-4.11c0-.13-.11-.25-.25-.25h-1.59c-.13,0-.25-.11-.25-.25v-3.48c0-.07-.04-.16-.1-.2l-2.66-1.88c-.06-.05-.1-.12-.1-.2v-.18c0-.07.04-.15.1-.2.25-.18.4-.48.4-.81,0-.6-.51-1.08-1.13-1.01Z"/></g></svg>