<?xml version="1.0" encoding="UTF-8"?><svg id="a" xmlns="http://www.w3.org/2000/svg" xmlns:xlink="http://www.w3.org/1999/xlink" viewBox="0 0 51.02 51.02"><defs><clipPath id="b"><rect x="8.34" y=".07" width="35.52" height="50.61" style="fill:none;"/></clipPath></defs><ellipse cx="39.16" cy="27.66" rx=".49" ry=".46" style="fill:#fff;"/><g style="clip-path:url(#b);"><path d="M21.22,36.8c.79,0,1.43.64,1.43,1.43,0,.79-.64,1.43-1.43,1.43-.79,0-1.43-.64-1.43-1.43s.64-1.43,1.43-1.43ZM22.8.38l-5.34,1.8,1.92,5.72-1.37.46.5,1.49c.25.75-.09,1.56-.8,1.92-5.38,2.78-9.06,8.39-9.06,14.85,0,5.36,2.53,10.13,6.47,13.19.94.73,1.34,1.97.97,3.1l-.67,2.01h-4.33l-1.81,5.44h34.28l-1.81-5.44h-14.35l-1.67-5.03,1.63-.55.31.92c.19.57,2.64.26,5.47-.69,2.83-.95,4.97-2.19,4.78-2.76l-1.25-3.71-11.88,4-.96-2.88,15.1-5.09-.94-2.79-15.09,5.09c-.54-1.38-2.54-1.36-3.02.08l-.72,2.15c-.32.97-1.57,1.25-2.25.49-1.79-2-2.88-4.64-2.88-7.54,0-3.71,1.79-7.01,4.56-9.08.99-.74,2.43-.29,2.82.89l.49,1.62c-1.27.48-1.94,1.87-1.51,3.17l.23.7,4.26-1.44,1.79,5.31,4.36-1.47-1.79-5.3,4.13-1.39-.23-.7c-.44-1.3-1.83-2-3.13-1.61l-3.87-11.69-1.41.47-1.92-5.72Z" style="fill:#3492c6;"/></g></svg>