<?xml version="1.0" encoding="UTF-8"?><svg id="a" xmlns="http://www.w3.org/2000/svg" xmlns:xlink="http://www.w3.org/1999/xlink" viewBox="0 0 51.02 51.02"><defs><clipPath id="b"><rect x="-.1" y="12.99" width="50.83" height="23.6" style="fill:none;"/></clipPath></defs><ellipse cx="39.16" cy="27.66" rx=".49" ry=".46" style="fill:#fff;"/><g style="clip-path:url(#b);"><path d="M6.09,26.84l-.82,4.83,2.98,2.09,22.91,1.47c9.53.64,14.8-4.62,17.33-8.39H6.09ZM4.73,23.3c-.25-.08-.51.02-.71.22l-.93,1c-.15.16-.26.37-.31.6l-.34,1.53c-.08.33-.05.67.07.98l.74,1.84-.53,3.63s-2.03-.15-2.56,2.48c1.16.25,2.83.65,2.83.65.13.03.24,0,.35-.08l1.46-1.25c.14-.09.24-.27.26-.45l.29-1.73-.45-.31-.46-.3.1-.64.9-5.41.05-.3.19-.2,1.58-1.7-2.56-.57ZM9.09,23.16l-2.61,2.79h42.58c.97-1.61,1.38-2.78,1.38-2.78H9.09ZM25.62,13.34l-1.07,3.52h2.19l-1.8,5.41h4.5l.5-5.41h5.05l4.01,5.41h2.56l-4.86-5.41h1.56l-1.59-2.15-11.06-1.37Z"/></g></svg>