<?xml version="1.0" encoding="UTF-8"?><svg id="a" xmlns="http://www.w3.org/2000/svg" xmlns:xlink="http://www.w3.org/1999/xlink" viewBox="0 0 51.02 51.02"><defs><clipPath id="b"><rect x=".68" y="10.61" width="49.3" height="22.43" style="fill:none;"/></clipPath></defs><g style="clip-path:url(#b);"><path d="M43.89,23.25c.55.01.54.5.54.5,0,0,.87-.14,2.36.05,1.49.19,2.29.47,2.29.47-.21.89-1.84,1.58-9.84,2.74.19-.41.32-.84.4-1.28,0,0,0,0,0,0,.37-2.58,3.56-2.5,4.26-2.48ZM21.22,22.8c1.08,0,2.12.34,2.95,1.21,1.89,1.99,2.18,3.36,4.05,3.85-2.34-.13-3.74-.55-5.66-.76-.29-.55-.86-1.07-2-1.05-4.52.08-6.16,1.04-5.12-.45.83-1.2,3.41-2.81,5.79-2.8ZM42.78,20.36c1.91,0,1.97,1,1.97,1-.49-.07-.83.16-1.2.28-1.99.54-3.1-.36-3.1-.36,0,0,.42-.92,2.33-.92ZM27.08,16.94c1.17-.01,1.94.36,1.47,1.68-.75,2.15,1.12,2.26,1.12,2.26,0,0-2.32,1.17-3.98-1.33-.94-1.41-2.27-1.68-3.25-1.64.75-.23,1.51-.45,2.3-.65.8-.16,1.64-.3,2.34-.31ZM25.61,10.81c-.07,0-.14.03-.2.08-.12.1-.17.26-.13.41.94,3.54.31,5.21-.61,5.59-10.68,2.74-17.46,7.96-17.74,8.18-.64.5-1.09,1.01-1.41,1.48-.68.67-1.54.97-2.4.75-1.58-.39-2.23.3-2.23.3,0,0,1.27.37,1.12.95-.13.5.14.77.28.9-.78.83-.03,1.46-.4,2.11-.36.65-1,.97-1,.97,0,0,2.03,1.09,3.67-.92,1.13-1.38,1.08-2.09,1.78-2.82,1.36.49,2.86.42,4.26,0,3.15-.94,8.42-1.73,11.96-1.34,3,.34,4.74,1.16,10.95.62-.15.59-.2,1.27-.08,2.06.06.35.37.6.71.56,2.07-.22,3.93-1.53,4.89-3.3,3.93-.57,6.42-1.03,7.97-1.47,1.46-.42,2.17-.85,2.38-1.46.66-.13.47-1.09-.34-1.8-.99-2.17-2.2-2.49-3.72-2.9-.7-.19-1.49-.4-2.38-.81-2.82-1.32-6.01-1.72-8.83-2.07l-.23-.03c-2.87-.36-3.15-.63-3.7-1.51-.57-.91-2.45-3.48-4.37-4.5-.07-.04-.14-.05-.21-.05Z"/></g></svg>