<?xml version="1.0" encoding="UTF-8"?><svg id="a" xmlns="http://www.w3.org/2000/svg" xmlns:xlink="http://www.w3.org/1999/xlink" viewBox="0 0 51.02 51.02"><defs><clipPath id="b"><rect x="6.64" y="1.9" width="42.92" height="46.58" style="fill:none;"/></clipPath></defs><ellipse cx="39.16" cy="27.66" rx=".49" ry=".46" style="fill:#fff;"/><g style="clip-path:url(#b);"><path d="M27.95,30.77s-.07.03-.09.07l-2.44,5.17c-.05.11.06.21.16.16l5.17-2.44c.08-.04.09-.14.03-.2l-2.72-2.72s-.07-.04-.11-.03ZM42.95,15.51s-.06.01-.09.04l-13.87,13.87s-.05.13,0,.17l2.96,2.96s.12.05.17,0l13.87-13.87s.05-.13,0-.17l-2.95-2.96s-.06-.04-.09-.04ZM46.58,12.27c-.29.01-.59.14-.82.37l-1.65,1.65s-.05.13,0,.17l2.95,2.96s.13.05.17,0l1.65-1.65c.47-.47.5-1.19.08-1.61l-1.59-1.59c-.21-.21-.5-.31-.79-.3ZM31.63,2.38s-.08.06-.08.12v10.26c0,.19.16.35.35.35h10.25c.11,0,.16-.13.09-.21L31.76,2.41s-.09-.05-.14-.03ZM7.29,2.2c-.19,0-.35.15-.35.35v45.3c0,.19.16.35.35.35h34.82c.19,0,.35-.15.35-.35v-23.47l-9.86,9.86c-.37.37-.8.67-1.27.89l-7.9,3.51c-.3.14-.6-.17-.46-.46l3.56-8.06c.22-.47.53-.91.9-1.28l14.2-14.2h-11.24c-.19,0-.35-.15-.35-.35V2.32c0-.07-.06-.12-.12-.12H7.29Z" style="fill:#3492c6;"/></g></svg>