<?xml version="1.0" encoding="UTF-8"?><svg id="a" xmlns="http://www.w3.org/2000/svg" xmlns:xlink="http://www.w3.org/1999/xlink" viewBox="0 0 51.02 51.02"><defs><clipPath id="b"><rect x="7.13" y="1.59" width="36.83" height="47.52" style="fill:none;"/></clipPath></defs><ellipse cx="39.16" cy="27.66" rx=".49" ry=".46" style="fill:#fff;"/><g style="clip-path:url(#b);"><path d="M14.02,36.36h23.05c.08,0,.13.06.13.14v2.06c0,.08-.05.14-.13.14H14.02c-.08,0-.14-.06-.14-.14v-2.06c0-.08.06-.14.13-.14ZM17.74,26.74h3.83c.08,0,.14.06.14.13v7.79c0,.08-.06.14-.14.14h-3.83c-.08,0-.13-.06-.13-.14v-7.79c0-.08.06-.13.13-.13ZM29.52,22.72h3.83c.08,0,.14.06.14.13v11.82c0,.08-.06.13-.14.13h-3.83c-.08,0-.13-.06-.13-.13v-11.82c0-.08.06-.13.13-.13ZM23.63,17.84h3.83c.08,0,.13.06.13.14v16.69c0,.08-.06.14-.13.14h-3.83c-.08,0-.14-.06-.14-.14v-16.69c0-.08.06-.14.14-.14ZM32.63,2.06s-.08.06-.08.12v10.47c0,.2.16.35.36.35h10.47c.11,0,.17-.14.09-.22l-10.7-10.7s-.09-.05-.14-.03ZM7.77,1.87c-.2,0-.36.16-.36.35v46.25c0,.2.16.35.36.35h35.55c.2,0,.36-.16.36-.35V14.68c0-.07-.06-.13-.13-.13h-12.2c-.2,0-.36-.16-.36-.35V2c0-.07-.06-.13-.13-.13H7.77Z" style="fill:#bcc423;"/></g></svg>