<?xml version="1.0" encoding="UTF-8"?><svg id="a" xmlns="http://www.w3.org/2000/svg" xmlns:xlink="http://www.w3.org/1999/xlink" viewBox="0 0 51.02 51.02"><defs><clipPath id="b"><rect x="2.96" y="1.27" width="44.82" height="48.8" style="fill:none;"/></clipPath></defs><ellipse cx="39.16" cy="27.66" rx=".49" ry=".46" style="fill:#fff;"/><g style="clip-path:url(#b);"><path d="M27.85,1.58c-1.34-.02-2.63.27-3.36,1.27-.95,1.29-1.99,5.11,1.51,9.27,2,2.38,3.68,4.23,4.11,5.99.49,2.02-1.31,3.88-3.36,3.5-1.36-.24-3.37-.37-5.72.23-3.72.95-16.06,8.85-15.48,14.22.01.14-.02.29-.11.4-.54.78-2.52,3.95-2.11,8.1.01.18.23.28.38.2,1.14-.55,5.77-2.66,9.48-1.95,1.45.28,3.16.33,5,.11.2-.02.38.11.41.31.07.52.11,1.02.06,1.48-.46,4.65-1.85,3.95-1.49,4.77.33.75,1.37-.4,1.42-.33.47.77,1.01.58,1.41.58,1.22,0,.06,0,.4-.01,1.43,0,2.72,0,3.64.01,1.67.02,3.26.01,3.64,0,.3-.01.47-.12.55-.31.54.04.88.31.88.31,0,0,.77-1.41-4.52-1.51-3.58-.06-3.27-1.14-3.76-3.84-.07-.42-.13-.98-.17-1.6-.01-.18.11-.34.27-.38,7.21-1.82,14.98-7.62,14.8-19.14-.08-4.99-3.71-9.89-6.15-12.64-.11-.13.04-.31.18-.24.78.41,1.75.72,2.88.72,3.44,0,5.15,1.18,6.82,3.19,2.26,2.73,6.25,1.82,6.53,1.75h.04c.11.02.7.17.82.81.04.17.26.22.36.07.72-.95-.23-1.69-.23-1.69l-13.77-9.96c-.31-.22-.52-.56-.58-.93-.13-.79-.61-2.19-2.41-2.52-.74-.13-1.56-.25-2.37-.26Z"/></g></svg>