<?xml version="1.0" encoding="UTF-8"?><svg id="a" xmlns="http://www.w3.org/2000/svg" xmlns:xlink="http://www.w3.org/1999/xlink" viewBox="0 0 51.02 51.02"><defs><clipPath id="b"><rect x=".6" y=".63" width="49.9" height="49.9" style="fill:none;"/></clipPath></defs><circle cx="25.43" cy="25.58" r="23.52" style="fill:#fff;"/><circle cx="21.59" cy="15" r="3.37" style="fill:#f2b10f;"/><ellipse cx="39.16" cy="27.66" rx=".49" ry=".46" style="fill:#fff;"/><circle cx="42.62" cy="30.09" r="2.06" style="fill:#ef1180;"/><circle cx="11.71" cy="35.96" r="1.7" style="fill:#8d14ed;"/><circle cx="41.15" cy="19.76" r="2.97" style="fill:#0dce64;"/><g style="clip-path:url(#b);"><path d="M19.08,38.29c.62,0,1.13.51,1.13,1.13,0,.62-.51,1.12-1.13,1.12s-1.13-.5-1.13-1.12c0-.62.51-1.13,1.13-1.13ZM19.08,37.31c-1.16,0-2.1.95-2.1,2.1,0,1.16.94,2.1,2.1,2.1s2.1-.94,2.1-2.1c0-1.16-.94-2.1-2.1-2.1ZM24.95,36.33c.62,0,1.12.51,1.12,1.13,0,.62-.5,1.13-1.12,1.13s-1.13-.51-1.13-1.13.51-1.13,1.13-1.13ZM24.95,35.35c-1.16,0-2.1.94-2.1,2.1,0,1.16.95,2.1,2.1,2.1s2.1-.94,2.1-2.1c0-1.16-.94-2.1-2.1-2.1ZM11.75,34.86c.62,0,1.12.5,1.12,1.12,0,.62-.5,1.13-1.12,1.13s-1.13-.51-1.13-1.13.51-1.12,1.13-1.12ZM11.75,33.88c-1.16,0-2.1.94-2.1,2.1,0,1.16.95,2.1,2.1,2.1s2.1-.95,2.1-2.1c0-1.16-.94-2.1-2.1-2.1ZM42.56,28.61c.89,0,1.62.73,1.62,1.62,0,.89-.73,1.62-1.62,1.62s-1.62-.73-1.62-1.62c0-.89.73-1.62,1.62-1.62ZM42.56,27.63c-1.43,0-2.6,1.17-2.6,2.6,0,1.43,1.17,2.6,2.6,2.6,1.43,0,2.6-1.17,2.6-2.6,0-1.43-1.17-2.6-2.6-2.6ZM15.66,21.76c.89,0,1.62.73,1.62,1.62,0,.89-.73,1.62-1.62,1.62-.89,0-1.62-.73-1.62-1.62,0-.89.73-1.62,1.62-1.62ZM15.66,20.78c-1.43,0-2.6,1.17-2.6,2.6,0,1.43,1.17,2.59,2.6,2.59,1.43,0,2.59-1.16,2.59-2.59,0-1.43-1.16-2.6-2.59-2.6ZM29.95,18.49c2.89,0,5.25,2.36,5.25,5.25s-2.36,5.25-5.25,5.25-5.25-2.36-5.25-5.25,2.36-5.25,5.25-5.25ZM29.95,17.51c-3.43,0-6.23,2.8-6.23,6.23s2.79,6.23,6.23,6.23,6.23-2.8,6.23-6.23c0-3.43-2.8-6.23-6.23-6.23ZM41.2,16.87c1.58,0,2.87,1.29,2.87,2.87s-1.29,2.87-2.87,2.87-2.87-1.29-2.87-2.87c0-1.58,1.29-2.87,2.87-2.87ZM41.2,15.89c-2.12,0-3.85,1.73-3.85,3.85s1.73,3.85,3.85,3.85,3.85-1.73,3.85-3.85c0-2.12-1.73-3.85-3.85-3.85ZM21.63,11.98c1.58,0,2.87,1.29,2.87,2.87,0,1.58-1.29,2.87-2.87,2.87s-2.87-1.29-2.87-2.87,1.29-2.87,2.87-2.87ZM21.63,11c-2.12,0-3.85,1.73-3.85,3.85,0,2.12,1.73,3.85,3.85,3.85s3.85-1.73,3.85-3.85c0-2.12-1.73-3.85-3.85-3.85ZM34.25,9.53c.66,0,1.19.54,1.19,1.2,0,.66-.53,1.2-1.19,1.2s-1.2-.54-1.2-1.2c0-.66.54-1.2,1.2-1.2ZM34.25,8.55c-1.2,0-2.18.97-2.18,2.17,0,1.2.98,2.18,2.18,2.18s2.17-.98,2.17-2.18c0-1.2-.97-2.17-2.17-2.17ZM25.55,2.75c12.58,0,22.82,10.24,22.82,22.82s-10.24,22.82-22.82,22.82S2.73,38.16,2.73,25.58C2.73,12.99,12.96,2.75,25.55,2.75ZM25.55.96C11.97.96.93,12.01.93,25.58s11.04,24.61,24.61,24.61,24.61-11.04,24.61-24.61S39.12.96,25.55.96Z"/></g></svg>