<?xml version="1.0" encoding="UTF-8"?><svg id="a" xmlns="http://www.w3.org/2000/svg" xmlns:xlink="http://www.w3.org/1999/xlink" viewBox="0 0 51.02 51.02"><defs><clipPath id="b"><rect x="1.18" y="15.74" width="48.52" height="20.77" style="fill:none;"/></clipPath></defs><ellipse cx="39.16" cy="27.66" rx=".49" ry=".46" style="fill:#fff;"/><g style="clip-path:url(#b);"><path d="M43.62,16.01c-1.15-.01-2.4.34-3.23,1.15-1.66,1.62-4.21,3.75-10.54,4.86-3.15.55-14.4,3.02-19.12,6.82-.84.67-1.94.9-2.99.65-1.51-.37-3.17-.71-4.26-.71-1.13,0-2.04.62-2.04,1.39,0,.37.21.71.55.96-.32.12-.55.35-.55.62s.23.51.55.63c-.35.25-.55.59-.55.96,0,.77.91,1.39,2.04,1.39,1.87,0,3.11-.32,4.33-.68.83-.24,1.7-.27,2.53-.03,1.19.34,2.53.57,4.75.57h8.8c2.66,0,5.93-.45,9-1.66.07-.02.15.01.16.08.05.28-.04.47-.37.54-5.28,1.08-3.44,1.54-2.99,1.61.05.29.25.46.61.46.13.82,2.88.62,5.96.61,1.87-.01,2.88-4.56,3.1-7.6.01-.11.05-.22.13-.31.49-.58.93-1.2,1.34-1.88,3.22-4.61,6.2-3.92,6.85-4.82.06-.08.17-.13.27-.13,1.22,0,1.77-1.45,1.3-1.82-.07-.06-.14-.13-.15-.23-.04-.35-.21-.49-.51-.59-.37-.11-1.54-.69-2.34-1.82-.44-.62-1.5-.99-2.65-1Z"/></g></svg>