<?xml version="1.0" encoding="UTF-8"?><svg id="a" xmlns="http://www.w3.org/2000/svg" xmlns:xlink="http://www.w3.org/1999/xlink" viewBox="0 0 51.02 51.02"><defs><clipPath id="b"><rect x=".48" y="13.7" width="50.15" height="18.46" style="fill:none;"/></clipPath></defs><g style="clip-path:url(#b);"><path d="M24.24,13.89c-.27.02-.41.22-.26.75.8,2.82-.86,4.96-2.02,5.36-1.17.41-10.29,2.61-10.91,2.74-.63.13-1.59.34-1.94-.16-2.74-3.62-6.59-5.61-7.75-5.96-.57-.17-.85-.08-.57.26.36.42,4.05,4.56,4.51,6.99.26,1.37-1.46,4.59-1.62,4.9-.16.31-.47.52,0,.63,1.92,0,4.66-3.2,5.3-4.04.5-.65,2.08-.74,3.44-.35,2.33.67,8.72,2.07,15.85,2.53-.23,1.52-1.64,3.2-1.92,3.63-.37.57-.34.84.34.78,2.77-.35,5.46-2.64,7.07-4.28,4.26-.08,8.49-.62,12.03-1.96.46-.18.58-.34.17-.6-.25-.15-1.22-.47-1.95-.7-.1-.03-.07-.18.04-.17.87.11,1.11.23,2.2.46.89.19,1.92.07,2.53-.29,1.23-.72,1.8-1.17,1.61-1.56-.52-1.01-7.47-3.97-18.1-3.97-1.69,0-2.32-.23-2.73-.76-1.44-1.95-3.02-3.22-4.31-3.92-.36-.19-.75-.35-1.02-.33Z" style="fill:#282828;"/></g><ellipse cx="40.1" cy="22.67" rx=".84" ry=".79" style="fill:#fff;"/></svg>