<?xml version="1.0" encoding="UTF-8"?><svg id="a" xmlns="http://www.w3.org/2000/svg" viewBox="0 0 51.02 51.02"><ellipse cx="39.16" cy="27.66" rx=".49" ry=".46" style="fill:#fff;"/><path d="M32.86,33.88c-.05-.07-.09-.26-.11-.34.17-.63.19-1.03.32-1.68l3.41-.94c-.56,1.14-1.81,2.56-2.99,3.05-.21.08-.47.14-.64-.08Z" style="fill:#1a1a1a;"/><path d="M17.66,32.02s.62.23,2.08.39c5.08.78,9.86-.14,12.24-.71s6.2-1.63,6.2-1.63l8.11-2.23s1.65-.48,1.61-1.08-4.12.3-4.12.3l-4.03.48-13.66-.69-7.66,1.79-.38,2.08-.38,1.31Z" style="fill:#e5e5e5;"/><path d="M48.36,17.57c.53,0,.94-.15,1.29.3s.52.97.61,1.53l.21,1.18.07.51.06.45c.05.36.05.75,0,1.1-.21,1.26-.59,2.72-2.03,3.06l-3.86.92-2.28.56c-.76.19-1.49.41-2.2.74-.56.27-1.07.59-1.61.89-.74.42-1.25.52-2.1.3-.38-.09-.72-.19-1.12-.17-.53.03-1.17.21-1.46.7-.48.82-.89,1.65-1.46,2.41-.42.56-.89,1.04-1.44,1.48-.65.52-1.88,1.38-2.74,1.26-.13-.02-.27-.12-.3-.25-.03-.17,0-.35.07-.51.47-1.11.49-1.62.83-2.66.19-.58.6-1.02,1.13-1.32l.4-.23c.28-.16.53-.31.78-.54-.12-.03-.21,0-.32.01-.72.09-1.38.27-2.04.58-.99.46-1.22.75-2.09,1.27-.66.39-1.35.7-2.12.78-.98.11-1.64-.15-2.52-.42-1.21-.36-2.24-.48-3.43.01-.17.07-.28.21-.29.36-.03.52.87.75,1.26.93-.18.03-.34.01-.52-.02-1.02-.19-2-.41-2.99-.7-.9-.26-1.74-.59-2.58-.99-.28-.13-.56-.24-.83-.4l-1.02-.57c-1.45-.82-2.74-1.83-3.97-2.95-.2-.06-.43-.06-.62-.03l-.7.12c-.94.16-1.66.37-2.63.3-1.16-.09-2.24-.44-3.17-1.15-.22-.17-.42-.37-.5-.64-.04-.13.02-.28.15-.3.64-.09.61.25,1.63-.14,1.28-.5,2.17-1.7,3.79-1.16,0-1.12.23-1.5,1.01-2.17l.34-.29c1.25-1.07.56-1.59.79-1.77.04-.03.15-.04.2-.02.36.13.59.4.8.7.38.54.56,1.16.61,1.82.13,1.43-.49,2.11.04,2.97.5.11,1.7.41,2.15.42,1.02.01,1.24-.63,2.01-.27.52.24.86.02,1.26-.31.56-.47.99-.19,1.63-.27.21-.03.38-.2.52-.34.86-.89,1.08-.46,1.88-.78.45-.18.71-.62.69-1.1-.01-.28.11-.51.38-.6.37-.13.75-.15,1.14-.12l.41.03.85.07.84.07c.71.06,1.38-.14,2.07-.31l2.2-.53,5.13-1.2,1.39-.36c.56-.14,1.06-.4,1.6-.6s1.08-.25,1.64-.31c.7-.07,1.35-.18,2.04-.31l1.81-.35,2.36-.48.74-.14c.66-.13,4.13-.08,4.15-.08Z" style="fill:#33373a;"/><path d="M48.16,17.06c.53,0,1.12.39,1.48.85s.52.97.61,1.53l.21,1.18.07.51.06.45c.05.36-.19-2.78-1.65-1.94s-1.93,2.35-3.08,3-2.56.26-3.97,1.8c-1.31,1.44-1.54,2-3.44,2.75-2.29.89-5.32-.21-6.76.26-4.45,1.45-8.23,2.95-12.19,2.76-4.07-.09-6.95-1.75-11.69-4.65-1.48-.94,3.61.33,3.8.33,1.02.01,1.24-.63,2.01-.27.52.24.86.02,1.26-.31.56-.47.99-.19,1.63-.27.21-.03.38-.2.52-.34.86-.89,1.08-.46,1.88-.78.45-.18.71-.62.69-1.1-.01-.28.11-.51.38-.6.37-.13.75-.15,1.14-.12l.41.03.85.07.84.07c.71.06,1.38-.14,2.07-.31l2.2-.53,5.13-1.2,1.39-.36c.56-.14,1.06-.4,1.6-.6s1.08-.25,1.64-.31c.7-.07,1.35-.18,2.04-.31l1.81-.35,2.36-.48.74-.14c.66-.13,1.29-.26,1.95-.41.37-.09.73-.17,1.11-.21.1-.01.89-.01.9-.01Z" style="fill:#434649;"/><ellipse cx="38.72" cy="25.53" rx=".47" ry=".34" transform="translate(-4.52 8.77) rotate(-12.21)" style="fill:#1a1a1a;"/></svg>