<?xml version="1.0" encoding="UTF-8"?><svg id="a" xmlns="http://www.w3.org/2000/svg" xmlns:xlink="http://www.w3.org/1999/xlink" viewBox="0 0 51.02 51.02"><defs><clipPath id="b"><rect x="7.06" y="6.62" width="37.33" height="37.33" style="fill:none;"/></clipPath></defs><g style="clip-path:url(#b);"><path d="M25.72,6.85c-.11,0-.21.04-.29.13-.26.27-.5.53-.68.71-.72.03-1.01.77-.82,1.31-.98,1.09-.79,2.41-.32,4.01.2.67.02,1.22-.26,1.63-1.42-.11-2.56.46-3.37,1.18-2.19-.47-10.67-1.46-12.69,10.88-.05.3.29.5.52.31.93-.77,2.01-1.6,2.47-1.95.12-.09.29-.05.36.08l.15.26c.09.16.3.17.41.03.62-.81,2.38-3.4,4.11-4.77.22-.17.54.02.48.29-.13.71-.12,1.37-.03,1.87-.53,1.54-.59,3.64.37,5.35-.31,2.1.16,3.34,2,5.36-1.04,1.51-2.48,4.03-2.47,6.44,0,.35.09.7.25,1.01l.31.61c.06.11.15.19.26.22l.58.18c.11.04.23.02.34-.04l.71-.4c.1-.06.22-.07.33-.04l.26.08c.18.06.38-.01.49-.18l.69-1.03c.06-.08.08-.18.08-.28-.02-.4-.02-1.53.31-2.58,1.44,1.72,3.17,2.57,4.23,2.96l.98,3.06c.07.22.37.22.44,0l.98-3.06c1.06-.39,2.79-1.24,4.23-2.96.33,1.05.32,2.18.31,2.58,0,.1.03.2.08.28l.69,1.03c.11.16.3.23.49.18l.26-.08c.11-.04.23-.02.34.04l.71.4c.1.06.22.07.33.04l.58-.18c.11-.04.21-.12.26-.22l.31-.61c.16-.31.25-.66.25-1.01.02-2.41-1.42-4.94-2.47-6.44,1.84-2.03,2.31-3.27,2-5.36.96-1.71.9-3.81.37-5.35.09-.5.11-1.16-.03-1.87-.05-.28.26-.47.48-.29,1.73,1.37,3.49,3.96,4.11,4.77.11.14.32.12.41-.03l.15-.26c.07-.13.24-.17.36-.08.46.35,1.54,1.18,2.47,1.95.23.19.57,0,.52-.31-2.03-12.33-10.5-11.35-12.69-10.88-.81-.72-1.95-1.29-3.37-1.18-.28-.41-.46-.96-.26-1.63.47-1.6.66-2.92-.31-4.01.19-.55-.1-1.28-.82-1.31-.18-.18-.42-.44-.68-.71-.08-.08-.19-.13-.29-.13Z" style="fill:#637c16;"/></g></svg>