<?xml version="1.0" encoding="UTF-8"?><svg id="a" xmlns="http://www.w3.org/2000/svg" viewBox="0 0 51.02 51.02"><g id="b" image-rendering="optimizeQuality" shape-rendering="geometricPrecision" text-rendering="geometricPrecision"><path d="M34.86,15.96c-.14-.1-.38-.22-.51.1s-1.28,2.45.26,4.52c1.54,2.07,5.06,1.17,5.22,2.81s-2.13,5.22-5.1,5.85c-3.22.81-6.26-2.63-7.41-4.35-2-2.81-2-4.94-6.14-5.73-1.9-.34-3.5.12-5.57-.28-3.1-.57-6.2-1.6-10.27-.28-2,.57-3.44,1.6-3.44,2.69v2.35c.63,5.69.12,7.35,1.78,7.98.34.12,3.38.04,4.54-.26,1.58-.16,1.24.12-.55.41s-4.96.06-4.96.24c-.06,2.71,3.62,3.22,6.72,3.22h20.15c3.04,0,7.51-.16,9.64-2.19,2.07-1.78,1.92-8.95,2.67-9.58.69-1.19,3,.34,5.53-1.88s2.29-4.84,1.6-4.72-2.65,1.78-4.94,1.66-2.69.91-2.69.91c0,0,.1-1.22-2.49-1.3-2.59.24-3.65-1.92-4.05-2.17h0Z"/><path d="M10.62,26.57c.38.2.83.23,1.24,0-.28-1.3-1.06-1.34-1.24,0Z" style="fill:#fff; fill-rule:evenodd;"/></g></svg>