<?xml version="1.0" encoding="UTF-8"?><svg id="a" xmlns="http://www.w3.org/2000/svg" viewBox="0 0 283.46 283.46"><g id="b"><path d="M43.09,206.56l8.47,22.66h-5.17l-1.71-5.05h-8.47l-1.78,5.05h-5.01l8.57-22.66h5.11,0ZM43.38,220.46l-2.86-8.31h-.06l-2.95,8.31h5.87Z" style="fill:#bcbcbc;"/><path d="M52.01,210.75v-4.19h18.57v4.19h-6.79v18.47h-4.98v-18.47h-6.8Z" style="fill:#bcbcbc;"/><path d="M81.34,206.56v18.47h11.04v4.19h-16.03v-22.66h4.99Z" style="fill:#bcbcbc;"/><path d="M109.64,206.56l8.47,22.66h-5.17l-1.71-5.05h-8.47l-1.78,5.05h-5.01l8.57-22.66h5.11-.01ZM109.93,220.46l-2.86-8.31h-.06l-2.95,8.31h5.87,0Z" style="fill:#bcbcbc;"/><path d="M127.07,223.64c.27.53.64.96,1.09,1.28.45.33.99.57,1.6.73.61.16,1.25.24,1.91.24.44,0,.92-.04,1.43-.11s.98-.22,1.43-.43.81-.5,1.11-.87.44-.84.44-1.41c0-.61-.2-1.11-.59-1.49s-.9-.7-1.54-.95-1.35-.48-2.16-.67c-.8-.19-1.62-.4-2.44-.64-.85-.21-1.67-.47-2.47-.78s-1.52-.7-2.16-1.19c-.64-.49-1.15-1.09-1.54-1.82-.39-.73-.59-1.61-.59-2.65,0-1.16.25-2.17.75-3.03s1.15-1.57,1.95-2.14c.8-.57,1.71-.99,2.73-1.27,1.02-.27,2.03-.41,3.05-.41,1.18,0,2.32.13,3.41.4,1.09.26,2.06.69,2.9,1.28.85.59,1.52,1.35,2.02,2.27s.75,2.04.75,3.35h-4.82c-.04-.68-.19-1.24-.43-1.68-.24-.44-.57-.79-.97-1.05-.4-.25-.86-.43-1.38-.54s-1.08-.16-1.7-.16c-.4,0-.8.04-1.21.13-.4.09-.77.23-1.09.44s-.6.48-.81.79c-.21.32-.32.72-.32,1.21,0,.44.09.8.25,1.08s.5.53,1,.76,1.18.47,2.06.7,2.02.53,3.44.89c.42.09,1.01.24,1.76.46s1.5.58,2.24,1.06,1.38,1.14,1.92,1.95c.54.82.81,1.86.81,3.13,0,1.04-.2,2-.6,2.89-.4.89-1,1.66-1.79,2.3s-1.78,1.15-2.95,1.51-2.53.54-4.08.54c-1.25,0-2.46-.15-3.63-.46s-2.21-.79-3.11-1.44c-.9-.65-1.61-1.49-2.14-2.51-.53-1.02-.78-2.22-.76-3.62h4.82c0,.76.14,1.41.41,1.94h0Z" style="fill:#bcbcbc;"/><path d="M44.65,239.81v2.48h-12.35v7.04h11.51v2.48h-11.51v7.67h12.44v2.48h-15.39v-22.16h15.3Z" style="fill:#bcbcbc;"/><path d="M49.4,239.81h3.54l5.52,8.66,5.77-8.66h3.29l-7.32,10.77,7.79,11.39h-3.6l-5.96-9.16-6.14,9.16h-3.29l7.7-11.39-7.29-10.77h-.01Z" style="fill:#bcbcbc;"/><path d="M83.19,239.81c2.24,0,3.93.57,5.07,1.72s1.72,2.76,1.72,4.83-.57,3.68-1.72,4.84-2.84,1.73-5.07,1.71h-6.77v9.06h-2.95v-22.16s9.72,0,9.72,0ZM82.2,250.43c1.68.02,2.9-.32,3.68-1.02s1.16-1.72,1.16-3.04-.39-2.33-1.16-3.03c-.78-.69-2-1.04-3.68-1.04h-5.77v8.13h5.77Z" style="fill:#bcbcbc;"/><path d="M111.99,239.81v2.48h-12.35v7.04h11.51v2.48h-11.51v7.67h12.44v2.48h-15.39v-22.16h15.3,0Z" style="fill:#bcbcbc;"/><path d="M126.36,239.81c3.41,0,6.04.87,7.88,2.61,1.84,1.74,2.76,4.39,2.76,7.94,0,1.86-.21,3.51-.62,4.95-.42,1.44-1.06,2.65-1.92,3.63-.87.98-1.98,1.73-3.32,2.25-1.35.52-2.94.78-4.78.78h-7.6v-22.16h7.6ZM126.61,259.49c.33,0,.75-.03,1.24-.08s1.02-.18,1.58-.37c.56-.2,1.11-.48,1.66-.85s1.04-.88,1.47-1.52c.43-.64.79-1.44,1.07-2.41s.42-2.13.42-3.49-.13-2.51-.39-3.55c-.26-1.05-.68-1.93-1.27-2.67s-1.35-1.29-2.28-1.68-2.08-.57-3.44-.57h-4.97v17.19h4.91Z" style="fill:#bcbcbc;"/><path d="M146.78,239.81v22.16h-2.95v-22.16h2.95Z" style="fill:#bcbcbc;"/><path d="M152.49,242.3v-2.48h17.72v2.48h-7.39v19.67h-2.95v-19.67h-7.39,0Z" style="fill:#bcbcbc;"/><path d="M178.84,239.81v22.16h-2.95v-22.16h2.95Z" style="fill:#bcbcbc;"/><path d="M186.33,246.53c.44-1.4,1.11-2.63,2-3.71.89-1.07,2-1.93,3.32-2.57,1.32-.64,2.87-.96,4.62-.96s3.3.32,4.62.96,2.43,1.5,3.32,2.57c.89,1.07,1.56,2.31,2,3.71s.67,2.85.67,4.36-.22,2.96-.67,4.36-1.11,2.63-2,3.71c-.89,1.07-2,1.93-3.32,2.56s-2.87.95-4.62.95-3.3-.32-4.62-.95c-1.32-.63-2.43-1.49-3.32-2.56-.89-1.07-1.56-2.31-2-3.71s-.67-2.85-.67-4.36.22-2.96.67-4.36h0ZM189.05,254.2c.29,1.09.75,2.06,1.37,2.93s1.42,1.57,2.39,2.1,2.13.79,3.48.79,2.5-.26,3.48-.79,1.77-1.23,2.39-2.1,1.07-1.85,1.37-2.93.43-2.19.43-3.3-.14-2.22-.43-3.3-.75-2.06-1.37-2.93-1.42-1.57-2.39-2.1-2.13-.79-3.48-.79-2.5.26-3.48.79-1.77,1.23-2.39,2.1c-.62.87-1.07,1.85-1.37,2.93s-.43,2.19-.43,3.3.14,2.22.43,3.3h0Z" style="fill:#bcbcbc;"/><path d="M216.7,239.81l11.67,17.97h.06v-17.97h2.79v22.16h-3.23l-11.58-17.78h-.06v17.78h-2.79v-22.16h3.14Z" style="fill:#bcbcbc;"/><path d="M250.19,242.84c-.98-.71-2.24-1.07-3.77-1.07-.62,0-1.23.06-1.83.19s-1.13.33-1.6.62-.84.68-1.12,1.16c-.28.49-.42,1.09-.42,1.81,0,.68.2,1.24.61,1.66.4.43.94.77,1.61,1.04.67.27,1.43.49,2.28.67s1.71.37,2.59.57,1.74.45,2.59.73c.85.28,1.61.66,2.28,1.13.67.48,1.21,1.07,1.61,1.8s.61,1.63.61,2.73c0,1.18-.26,2.19-.79,3.03s-1.2,1.52-2.03,2.05-1.75.91-2.78,1.15c-1.02.24-2.04.36-3.06.36-1.24,0-2.42-.16-3.52-.47-1.11-.31-2.08-.78-2.92-1.41s-1.5-1.44-1.99-2.42-.73-2.15-.73-3.49h2.79c0,.93.18,1.73.54,2.41.36.67.84,1.23,1.43,1.66s1.28.75,2.06.96c.79.21,1.59.31,2.42.31.66,0,1.33-.06,2-.19s1.28-.34,1.81-.64c.54-.3.97-.71,1.3-1.23.33-.52.5-1.18.5-1.99,0-.76-.2-1.39-.61-1.86-.4-.48-.94-.86-1.61-1.16s-1.43-.54-2.28-.73-1.71-.38-2.59-.57c-.88-.2-1.74-.43-2.59-.68s-1.61-.6-2.28-1.02c-.67-.43-1.21-.97-1.61-1.64s-.61-1.51-.61-2.53c0-1.12.23-2.08.68-2.9.45-.82,1.06-1.49,1.81-2.02s1.61-.92,2.57-1.18,1.95-.39,2.96-.39c1.14,0,2.19.13,3.17.4.97.27,1.82.69,2.56,1.27s1.31,1.31,1.74,2.19c.43.88.66,1.93.7,3.15h-2.79c-.17-1.59-.74-2.75-1.72-3.46h.03Z" style="fill:#bcbcbc;"/><path d="M74.15,192.56c0-24.36,40.48-140.2,65.5-175.09v175.09h-17.93c-11.12,0-36.72.65-47.57,0h0Z" style="fill:#bcbcbc;"/><path d="M150.13,17.46s1.42,199.22,1.42,211.29h66.41c-14.06-103.96-67.82-211.29-67.82-211.29h-.01ZM185.06,204.58v8.06h-6.84v-8.06h-7.82v-6.84h7.82v-7.82h6.84v7.82h8.06v6.84h-8.06Z" style="fill:#bcbcbc;"/></g></svg>