<?xml version="1.0" encoding="UTF-8"?><svg id="a" xmlns="http://www.w3.org/2000/svg" viewBox="0 0 283.46 283.46"><g id="b"><rect y="0" width="283.46" height="283.46" style="fill:#282828;"/></g><g id="c"><path d="M4.81,137.77c0-16.14,9.16-71.33,75.11-75.11,43.15,1.32,60.19,30.17,60.19,30.17,0,0-6.18,12-8.51,18.46s-5.85,20.93-5.85,20.93c0,0-4.23-22.18-18.06-31.4-9.37-6.72-32.83-15.9-56.23.65-16.37,11.96-21.33,31.15-16.29,48.6,5.04,17.45,16.23,32.77,41.85,33.77s41.52-15.21,49.92-47.05,11.29-39.67,25.32-54.09c12.51-12.85,30.55-19.99,52.31-20.98,52.35,1.83,73.78,41.08,73.78,74.26s-26.27,77.01-73.97,75.92c-41.42-.39-61.08-31.39-61.08-31.39,0,0,5.97-8.52,9.5-20.53,3.07-10.45,5.62-27.59,5.62-27.59,0,0-3.75,46.92,45.96,50.57,41.74-.93,46.17-40.18,46.17-45.2s-2.88-46.18-43.38-47.14-50.55,35.56-52.03,45.84-3.37,18.24-6.7,27.74-22.57,47.88-68.53,48.68c-30.79-1.28-44.96-13.16-58.11-27.51-13.14-14.36-17.01-31.46-17.01-47.6h.02,0Z" style="fill:#b4b4b4;"/></g></svg>